<svg xmlns="http://www.w3.org/2000/svg" xmlns:xlink="http://www.w3.org/1999/xlink" preserveAspectRatio="xMidYMid" width="79.969" height="36.594" viewBox="0 0 79.969 36.594">
  <defs>
    <style>
      .cls-1 {
        fill: #fff;
        fill-rule: evenodd;
      }
    </style>
  </defs>
  <path d="M72.837,36.603 C70.942,36.603 69.424,36.401 68.280,36.133 C67.096,35.855 66.314,35.505 65.938,35.229 C65.826,35.147 65.749,35.071 65.709,35.007 L65.709,34.331 L65.709,32.761 C66.448,33.087 67.324,33.342 68.280,33.531 C69.685,33.809 71.263,33.944 72.837,33.944 C75.483,33.944 78.141,33.566 79.965,32.761 L79.965,35.007 C79.662,35.498 77.281,36.603 72.837,36.603 ZM72.837,31.604 C70.943,31.604 69.424,31.403 68.281,31.135 C67.096,30.857 66.315,30.506 65.939,30.231 C65.858,30.172 65.795,30.116 65.751,30.065 C65.795,30.014 65.858,29.959 65.939,29.899 C66.315,29.624 67.096,29.274 68.281,28.996 C69.424,28.727 70.943,28.526 72.837,28.526 C77.116,28.526 79.482,29.550 79.923,30.065 C79.482,30.580 77.116,31.604 72.837,31.604 ZM59.340,35.958 C58.148,36.309 56.408,36.603 54.119,36.603 C49.674,36.603 47.294,35.498 46.990,35.007 L46.990,32.761 C48.814,33.566 51.473,33.944 54.119,33.944 C55.946,33.944 57.780,33.764 59.340,33.386 C60.039,33.218 60.683,33.010 61.247,32.761 L61.247,35.007 C61.100,35.245 60.462,35.627 59.340,35.958 ZM59.340,30.959 C58.148,31.311 56.408,31.604 54.119,31.604 C49.674,31.604 47.294,30.499 46.990,30.008 L46.990,27.762 C48.814,28.567 51.473,28.945 54.119,28.945 C55.946,28.945 57.780,28.764 59.340,28.387 C60.039,28.219 60.683,28.011 61.247,27.762 L61.247,30.008 C61.100,30.246 60.462,30.629 59.340,30.959 ZM59.340,25.961 C58.148,26.312 56.407,26.605 54.119,26.605 C49.839,26.605 47.473,25.581 47.033,25.066 C47.473,24.551 49.839,23.528 54.118,23.528 C56.407,23.528 58.148,23.821 59.340,24.172 C60.377,24.477 60.999,24.827 61.205,25.066 C60.999,25.306 60.377,25.655 59.340,25.961 ZM35.837,36.600 C31.395,36.600 29.014,35.496 28.709,35.005 L28.709,34.329 L28.709,32.758 C29.214,32.981 29.786,33.170 30.401,33.329 C32.007,33.742 33.925,33.941 35.837,33.941 C38.483,33.941 41.142,33.563 42.966,32.758 L42.966,35.004 L42.965,35.004 C42.660,35.496 40.280,36.600 35.837,36.600 ZM35.837,31.601 C33.942,31.601 32.424,31.401 31.280,31.132 C30.096,30.854 29.314,30.504 28.938,30.228 C28.826,30.146 28.749,30.070 28.709,30.005 L28.709,29.330 L28.709,27.759 C29.448,28.085 30.324,28.340 31.280,28.530 C32.685,28.808 34.263,28.942 35.837,28.942 C38.483,28.942 41.141,28.565 42.965,27.759 L42.965,30.005 C42.662,30.497 40.281,31.601 35.837,31.601 ZM35.837,26.603 C33.942,26.603 32.424,26.401 31.280,26.133 C30.096,25.855 29.314,25.505 28.938,25.229 C28.826,25.147 28.749,25.071 28.709,25.007 L28.709,24.331 L28.709,22.761 C29.448,23.087 30.324,23.342 31.280,23.531 C32.685,23.809 34.263,23.944 35.837,23.944 C38.483,23.944 41.141,23.566 42.965,22.761 L42.965,25.007 C42.662,25.498 40.281,26.603 35.837,26.603 ZM35.837,21.604 C33.943,21.604 32.424,21.403 31.281,21.135 C30.096,20.857 29.315,20.506 28.939,20.231 C28.858,20.172 28.795,20.116 28.751,20.065 C28.795,20.014 28.858,19.959 28.939,19.899 C29.315,19.624 30.096,19.274 31.281,18.996 C32.424,18.727 33.943,18.526 35.837,18.526 C40.116,18.526 42.482,19.550 42.923,20.065 C42.482,20.580 40.116,21.604 35.837,21.604 ZM21.811,13.081 C17.366,13.081 14.986,11.977 14.682,11.485 L14.682,9.239 C16.506,10.044 19.165,10.422 21.811,10.422 C24.456,10.422 27.115,10.044 28.938,9.239 L28.938,11.485 C28.635,11.977 26.254,13.081 21.811,13.081 ZM21.811,8.082 C17.366,8.082 14.986,6.978 14.682,6.487 L14.682,4.241 C16.506,5.046 19.165,5.424 21.811,5.424 C24.456,5.424 27.115,5.046 28.938,4.241 L28.938,6.487 C28.635,6.978 26.254,8.082 21.811,8.082 ZM21.810,3.084 C17.531,3.084 15.165,2.060 14.724,1.545 C15.165,1.030 17.531,0.006 21.810,0.006 C26.089,0.006 28.455,1.030 28.896,1.545 C28.455,2.060 26.089,3.084 21.810,3.084 ZM7.119,36.600 C2.676,36.600 0.295,35.496 -0.010,35.004 L-0.010,32.758 C1.814,33.563 4.473,33.941 7.119,33.941 C9.241,33.941 11.370,33.697 13.071,33.186 C13.491,33.060 13.885,32.918 14.247,32.758 L14.247,34.022 L14.247,35.004 C13.942,35.496 11.561,36.600 7.119,36.600 ZM12.340,30.957 C11.148,31.308 9.408,31.601 7.119,31.601 C2.674,31.601 0.294,30.497 -0.010,30.005 L-0.010,27.759 C1.814,28.564 4.473,28.942 7.119,28.942 C8.946,28.942 10.780,28.762 12.340,28.385 C13.039,28.216 13.683,28.008 14.247,27.759 L14.247,30.005 C14.100,30.244 13.463,30.626 12.340,30.957 ZM12.340,25.958 C11.148,26.309 9.408,26.603 7.119,26.603 C2.674,26.603 0.294,25.498 -0.010,25.007 L-0.010,22.761 C1.814,23.566 4.473,23.944 7.119,23.944 C8.946,23.944 10.780,23.763 12.340,23.386 C13.039,23.218 13.683,23.010 14.247,22.761 L14.247,25.007 C14.099,25.245 13.462,25.627 12.340,25.958 ZM12.340,20.959 C11.148,21.311 9.408,21.604 7.119,21.604 C2.674,21.604 0.294,20.499 -0.010,20.008 L-0.010,17.762 C1.814,18.567 4.473,18.945 7.119,18.945 C8.946,18.945 10.780,18.764 12.340,18.387 C13.039,18.219 13.683,18.011 14.247,17.762 L14.247,20.008 C14.099,20.246 13.462,20.629 12.340,20.959 ZM12.340,15.961 C11.148,16.312 9.407,16.605 7.119,16.605 C2.839,16.605 0.473,15.581 0.032,15.066 C0.474,14.551 2.839,13.528 7.118,13.528 C9.407,13.528 11.148,13.821 12.340,14.172 C13.377,14.477 14.000,14.827 14.205,15.066 C14.000,15.306 13.377,15.655 12.340,15.961 ZM28.938,14.238 L28.938,16.484 C28.635,16.976 26.255,18.080 21.811,18.080 C19.521,18.080 17.781,17.787 16.589,17.436 L16.589,15.066 C16.589,15.024 16.586,14.982 16.582,14.940 C16.580,14.913 16.575,14.887 16.572,14.859 C18.137,15.239 19.976,15.421 21.810,15.421 C24.456,15.421 27.114,15.043 28.938,14.238 ZM26.370,20.006 C26.370,20.026 26.367,20.045 26.367,20.065 L26.367,22.609 C25.224,22.878 23.705,23.079 21.811,23.079 C19.521,23.079 17.781,22.785 16.589,22.434 L16.589,19.862 C18.149,20.239 19.983,20.420 21.811,20.420 C23.386,20.420 24.965,20.285 26.370,20.006 ZM26.367,25.005 L26.367,27.608 C25.224,27.876 23.705,28.077 21.811,28.077 C19.521,28.077 17.781,27.784 16.589,27.433 L16.589,24.861 C18.149,25.238 19.983,25.418 21.811,25.418 C23.385,25.418 24.962,25.283 26.367,25.005 ZM26.367,30.004 L26.367,32.607 C25.224,32.875 23.705,33.076 21.811,33.076 C19.521,33.076 17.781,32.783 16.589,32.431 L16.589,29.860 C18.149,30.237 19.983,30.417 21.811,30.417 C23.385,30.417 24.962,30.282 26.367,30.004 Z" class="cls-1"/>
</svg>
