<svg xmlns="http://www.w3.org/2000/svg" xmlns:xlink="http://www.w3.org/1999/xlink" preserveAspectRatio="xMidYMid" width="81.188" height="36" viewBox="0 0 81.188 36">
  <defs>
    <style>
      .cls-1 {
        fill: #fff;
        fill-rule: evenodd;
      }
    </style>
  </defs>
  <path d="M81.139,33.933 C81.091,34.023 81.011,34.090 80.912,34.121 L75.453,35.827 C75.416,35.839 75.378,35.845 75.339,35.845 C75.173,35.845 75.022,35.733 74.972,35.574 L68.424,14.626 L74.617,12.693 L81.165,33.640 C81.196,33.738 81.186,33.842 81.139,33.933 ZM67.369,11.250 L73.562,9.317 L74.270,11.582 L68.077,13.516 L67.369,11.250 ZM66.091,7.162 C66.028,6.959 66.141,6.743 66.343,6.680 L71.804,4.974 C71.842,4.962 71.880,4.956 71.918,4.956 C72.086,4.956 72.233,5.065 72.283,5.226 L73.215,8.206 L67.022,10.140 L66.091,7.162 ZM57.187,10.501 L63.708,10.501 L63.708,16.195 L57.187,16.195 L57.187,10.501 ZM57.187,5.401 C57.186,5.190 57.358,5.018 57.569,5.018 L63.325,5.018 C63.536,5.018 63.708,5.190 63.708,5.401 L63.708,9.338 L57.187,9.338 L57.187,5.401 ZM63.708,18.978 L57.186,18.978 L57.186,17.359 L63.708,17.359 L63.708,18.978 ZM48.517,15.919 L55.051,15.919 L55.051,35.976 L48.517,35.976 L48.517,15.919 ZM48.517,13.210 L55.051,13.210 L55.051,14.755 L48.517,14.755 L48.517,13.210 ZM48.517,10.501 L55.051,10.501 L55.051,12.046 L48.517,12.046 L48.517,10.501 ZM48.517,5.401 C48.517,5.190 48.690,5.018 48.902,5.018 L54.665,5.018 C54.878,5.018 55.051,5.190 55.051,5.401 L55.051,9.338 L48.517,9.338 L48.517,5.401 ZM34.308,36.007 L31.078,36.007 L31.078,33.201 L5.930,33.201 L5.930,36.007 L2.699,36.007 L2.699,33.201 L-0.000,33.201 L-0.000,-0.000 L37.008,-0.000 L37.008,33.201 L34.308,33.201 L34.308,36.007 ZM34.274,2.926 L2.734,2.926 L2.734,30.274 L34.274,30.274 L34.274,2.926 ZM32.428,28.437 L4.580,28.437 L4.580,4.763 L32.428,4.763 L32.428,28.437 ZM25.826,15.682 L17.639,15.682 C17.227,14.068 15.755,12.871 14.007,12.871 C11.940,12.871 10.259,14.544 10.259,16.600 C10.259,18.657 11.940,20.330 14.007,20.330 C15.755,20.330 17.227,19.133 17.639,17.519 L25.826,17.519 L25.826,15.682 ZM63.708,35.976 L57.186,35.976 L57.186,20.142 L63.708,20.142 L63.708,35.976 Z" class="cls-1"/>
</svg>
