<svg xmlns="http://www.w3.org/2000/svg" xmlns:xlink="http://www.w3.org/1999/xlink" preserveAspectRatio="xMidYMid" width="70" height="37" viewBox="0 0 70 37">
  <defs>
    <style>
      .cls-1 {
        fill: #fff;
        fill-rule: evenodd;
      }
    </style>
  </defs>
  <path d="M69.000,31.000 L52.000,31.000 C51.605,31.000 51.000,30.392 51.000,30.000 L51.000,7.000 C51.000,6.607 51.605,6.000 52.000,6.000 L69.000,6.000 C69.395,6.000 70.000,6.607 70.000,7.000 L70.000,30.000 C70.000,30.392 69.395,31.000 69.000,31.000 ZM54.693,13.212 L60.656,13.212 C61.032,13.212 61.337,12.893 61.337,12.499 C61.337,12.105 61.032,11.786 60.656,11.786 L54.693,11.786 C54.317,11.786 54.012,12.105 54.012,12.499 C54.012,12.893 54.317,13.212 54.693,13.212 ZM54.012,15.294 C54.012,15.687 54.317,16.007 54.693,16.007 L64.368,16.007 C64.744,16.007 65.049,15.687 65.049,15.294 C65.049,14.899 64.744,14.580 64.368,14.580 L54.693,14.580 C54.317,14.580 54.012,14.899 54.012,15.294 ZM66.317,8.991 L54.693,8.991 C54.317,8.991 54.012,9.311 54.012,9.705 C54.012,10.099 54.317,10.418 54.693,10.418 L66.317,10.418 C66.693,10.418 66.998,10.099 66.998,9.705 C66.998,9.311 66.693,8.991 66.317,8.991 ZM66.317,21.791 L54.693,21.791 C54.317,21.791 54.012,22.111 54.012,22.505 C54.012,22.899 54.317,23.218 54.693,23.218 L66.317,23.218 C66.693,23.218 66.998,22.898 66.998,22.505 C66.998,22.111 66.693,21.791 66.317,21.791 ZM66.317,24.586 L54.693,24.586 C54.317,24.586 54.012,24.905 54.012,25.299 C54.012,25.693 54.317,26.012 54.693,26.012 L66.317,26.012 C66.693,26.012 66.998,25.693 66.998,25.299 C66.998,24.905 66.693,24.586 66.317,24.586 ZM40.000,23.000 C40.000,23.000 38.000,24.829 38.000,23.000 L38.000,14.000 C38.000,12.012 40.037,14.022 40.000,14.000 L44.000,18.000 C44.408,18.408 44.474,18.525 44.000,19.000 L40.000,23.000 ZM30.000,26.000 L29.000,26.000 L29.000,3.000 C29.000,2.607 28.395,2.000 28.000,2.000 L12.000,2.000 L12.000,1.000 C12.000,0.607 12.605,-0.000 13.000,-0.000 L30.000,-0.000 C30.395,-0.000 31.000,0.286 31.000,1.000 L31.000,25.000 C31.000,25.393 30.395,26.000 30.000,26.000 ZM27.000,5.000 L27.000,29.000 C27.000,29.392 26.395,30.000 26.000,30.000 L25.000,30.000 L25.000,7.000 C25.000,6.607 24.395,6.000 24.000,6.000 L8.000,6.000 L8.000,5.000 C8.000,4.607 8.605,4.000 9.000,4.000 L26.000,4.000 C26.395,4.000 27.000,4.286 27.000,5.000 ZM23.000,9.000 L23.000,33.000 C23.000,33.392 22.395,34.000 22.000,34.000 L21.000,34.000 L21.000,11.000 C21.000,10.607 20.395,10.000 20.000,10.000 L4.000,10.000 L4.000,9.000 C4.000,8.607 4.605,8.000 5.000,8.000 L22.000,8.000 C22.395,8.000 23.000,8.286 23.000,9.000 ZM19.000,13.000 L19.000,36.000 C19.000,36.392 18.395,37.000 18.000,37.000 L1.000,37.000 C0.605,37.000 -0.000,36.392 -0.000,36.000 L-0.000,13.000 C-0.000,12.607 0.605,12.000 1.000,12.000 L18.000,12.000 C18.395,12.000 19.000,12.607 19.000,13.000 ZM3.693,19.212 L9.656,19.212 C10.032,19.212 10.337,18.893 10.337,18.499 C10.337,18.105 10.032,17.786 9.656,17.786 L3.693,17.786 C3.316,17.786 3.012,18.105 3.012,18.499 C3.012,18.893 3.316,19.212 3.693,19.212 ZM3.012,21.293 C3.012,21.687 3.316,22.007 3.693,22.007 L13.368,22.007 C13.744,22.007 14.049,21.687 14.049,21.293 C14.049,20.899 13.744,20.580 13.368,20.580 L3.693,20.580 C3.316,20.580 3.012,20.899 3.012,21.293 ZM15.317,14.991 L3.693,14.991 C3.316,14.991 3.012,15.311 3.012,15.705 C3.012,16.099 3.316,16.418 3.693,16.418 L15.317,16.418 C15.693,16.418 15.998,16.099 15.998,15.705 C15.998,15.311 15.693,14.991 15.317,14.991 ZM15.317,27.791 L3.693,27.791 C3.316,27.791 3.012,28.111 3.012,28.505 C3.012,28.899 3.316,29.218 3.693,29.218 L15.317,29.218 C15.693,29.218 15.998,28.898 15.998,28.505 C15.998,28.111 15.693,27.791 15.317,27.791 ZM15.317,30.586 L3.693,30.586 C3.316,30.586 3.012,30.905 3.012,31.299 C3.012,31.693 3.316,32.012 3.693,32.012 L15.317,32.012 C15.693,32.012 15.998,31.693 15.998,31.299 C15.998,30.905 15.693,30.586 15.317,30.586 Z" class="cls-1"/>
</svg>
