<svg xmlns="http://www.w3.org/2000/svg" xmlns:xlink="http://www.w3.org/1999/xlink" preserveAspectRatio="xMidYMid" width="70" height="44.031" viewBox="0 0 70 44.031">
  <defs>
    <style>
      .cls-1 {
        fill: #fff;
        fill-rule: evenodd;
      }
    </style>
  </defs>
  <path d="M68.000,44.031 L59.000,44.031 C57.773,44.031 57.000,43.256 57.000,42.031 L57.000,8.031 C57.000,6.806 57.773,6.031 59.000,6.031 L68.000,6.031 C69.226,6.031 70.000,6.806 70.000,8.031 L70.000,42.031 C70.000,43.256 69.226,44.031 68.000,44.031 ZM49.000,44.031 L40.000,44.031 C38.774,44.031 38.000,43.256 38.000,42.031 L38.000,20.031 C38.000,18.806 38.774,18.031 40.000,18.031 L49.000,18.031 C50.226,18.031 51.000,18.806 51.000,20.031 L51.000,42.031 C51.000,43.256 50.226,44.031 49.000,44.031 ZM46.337,11.266 C46.148,12.061 45.521,12.239 44.943,11.661 L42.605,9.326 C42.283,8.998 41.934,9.241 41.733,9.382 C40.316,10.379 37.889,11.953 34.387,13.778 C19.589,21.491 7.249,22.083 3.814,22.083 C3.279,22.083 2.960,22.069 2.882,22.065 C1.816,22.010 0.997,21.102 1.051,20.037 C1.106,18.973 2.016,18.155 3.079,18.209 C3.278,18.218 16.527,18.731 32.599,10.354 C35.552,8.816 37.687,7.469 39.033,6.551 C39.202,6.436 39.415,6.164 39.236,5.960 L37.098,3.875 C36.520,3.297 36.697,2.668 37.492,2.475 L47.508,0.041 C48.302,-0.151 48.798,0.342 48.609,1.136 L46.337,11.266 ZM11.000,29.031 C12.226,29.031 13.000,29.806 13.000,31.031 L13.000,42.031 C13.000,43.256 12.226,44.031 11.000,44.031 L2.000,44.031 C0.774,44.031 -0.000,43.256 -0.000,42.031 L-0.000,31.031 C-0.000,29.806 0.774,29.031 2.000,29.031 L11.000,29.031 ZM21.000,25.031 L30.000,25.031 C31.226,25.031 32.000,25.806 32.000,27.031 L32.000,42.031 C32.000,43.256 31.226,44.031 30.000,44.031 L21.000,44.031 C19.774,44.031 19.000,43.256 19.000,42.031 L19.000,27.031 C19.000,25.806 19.774,25.031 21.000,25.031 Z" class="cls-1"/>
</svg>
