<svg xmlns="http://www.w3.org/2000/svg" xmlns:xlink="http://www.w3.org/1999/xlink" preserveAspectRatio="xMidYMid" width="103" height="27.907" viewBox="0 0 103 27.907">
  <defs>
    <style>
      .cls-1 {
        fill: #fff;
        fill-rule: evenodd;
      }
    </style>
  </defs>
  <path d="M100.895,27.910 L98.887,27.910 C96.012,27.910 93.145,27.910 90.269,27.910 C90.232,27.910 90.195,27.910 90.158,27.910 C90.121,27.910 90.084,27.910 90.047,27.910 C87.172,27.910 84.304,27.910 81.429,27.910 L79.421,27.910 C78.258,27.910 77.317,26.969 77.317,25.806 C77.317,25.702 77.324,25.591 77.339,25.487 C77.354,25.369 77.383,25.250 77.421,25.139 C77.709,24.050 78.354,22.080 78.643,21.199 C78.673,21.043 78.791,20.754 78.791,20.754 C78.969,20.376 79.621,19.836 79.621,19.836 C79.644,19.821 79.799,19.747 79.821,19.732 C80.525,19.399 82.704,18.525 82.704,18.525 C83.793,18.058 84.919,17.651 86.068,17.243 C86.275,18.102 88.224,23.776 88.536,24.562 L88.780,19.288 C88.699,19.169 88.639,19.021 88.573,18.888 L87.780,17.317 C88.350,17.777 89.188,18.065 90.129,18.065 C91.092,18.065 91.952,17.762 92.522,17.288 L91.707,18.895 C91.640,19.028 91.581,19.169 91.500,19.295 L91.744,24.569 C92.055,23.776 94.004,18.102 94.212,17.251 C95.360,17.658 96.486,18.058 97.576,18.532 C97.576,18.532 99.754,19.406 100.458,19.739 C100.480,19.747 100.658,19.843 100.658,19.843 C101.014,20.058 101.488,20.769 101.488,20.769 C101.555,20.910 101.607,21.058 101.636,21.213 C101.933,22.095 102.577,24.073 102.859,25.154 C102.896,25.265 102.926,25.384 102.941,25.502 C102.955,25.606 102.963,25.717 103.000,25.806 C103.000,26.969 102.059,27.910 100.895,27.910 ZM95.353,11.169 C94.767,13.043 93.863,14.236 92.974,14.991 C91.603,16.162 90.277,16.288 90.255,16.288 C90.218,16.288 90.181,16.288 90.143,16.288 C90.106,16.288 90.069,16.288 90.032,16.288 C90.003,16.288 88.669,16.154 87.291,14.977 C86.409,14.221 85.505,13.036 84.927,11.169 C84.897,11.169 83.712,11.762 83.437,8.673 C83.304,7.214 84.519,7.510 84.653,7.503 C84.653,7.132 84.579,5.792 84.579,5.480 C84.579,2.480 87.017,0.044 90.018,0.044 L90.025,0.044 L90.032,0.044 C90.069,0.044 90.099,0.044 90.136,0.044 C90.173,0.044 90.203,0.044 90.240,0.044 L90.247,0.044 L90.255,0.044 C93.256,0.044 95.694,2.480 95.694,5.480 C95.694,5.784 95.619,7.132 95.619,7.503 C95.753,7.510 96.968,7.214 96.842,8.673 C96.568,11.769 95.390,11.169 95.353,11.169 ZM65.976,8.030 L72.815,13.563 L65.976,19.095 L65.976,8.030 ZM57.716,23.539 C57.198,24.087 56.575,24.310 55.842,24.310 C53.389,24.310 50.936,24.310 48.484,24.310 C46.794,24.310 45.097,24.310 43.408,24.310 C43.104,23.221 42.600,21.680 42.296,20.754 C42.244,20.539 42.170,20.325 42.081,20.125 C42.022,19.984 41.904,19.769 41.548,19.317 C41.192,18.873 40.866,18.569 40.533,18.369 C40.392,18.280 40.236,18.206 40.184,18.184 C40.051,18.125 39.888,18.051 39.695,17.969 C39.940,17.702 40.221,17.465 40.540,17.251 C40.688,17.147 40.844,17.058 41.007,16.977 C41.214,16.865 44.401,15.821 44.482,15.791 C44.460,15.903 44.452,16.021 44.445,16.154 C44.001,16.465 42.696,17.584 43.289,19.688 C43.289,19.688 44.230,18.569 45.186,18.428 C46.098,20.021 47.646,22.028 48.484,22.554 C49.321,22.028 50.870,20.013 51.781,18.428 C52.737,18.569 53.678,19.688 53.678,19.688 C54.271,17.591 52.967,16.465 52.522,16.154 C52.515,16.021 52.507,15.903 52.485,15.791 C52.566,15.821 55.753,16.865 55.960,16.977 C56.116,17.058 56.271,17.147 56.427,17.251 C57.242,17.806 57.842,18.510 58.065,19.480 C58.087,19.569 58.183,20.117 58.183,20.117 C58.205,20.288 58.228,20.458 58.243,20.628 C58.243,20.636 58.280,21.525 58.280,21.525 C58.280,21.525 58.272,21.947 58.265,22.043 C58.235,22.599 58.117,23.110 57.716,23.539 ZM54.271,10.628 C54.189,10.903 54.145,11.162 54.145,11.406 C54.145,11.488 54.152,11.569 54.167,11.651 C54.234,11.880 54.723,12.665 54.804,12.799 C53.945,13.732 52.796,13.947 51.670,14.184 C51.336,14.251 50.996,14.295 50.632,14.339 C50.514,14.362 50.395,14.384 50.277,14.406 L50.847,16.080 C50.847,16.080 50.862,18.525 48.498,20.013 L48.484,20.013 C46.120,18.525 46.135,16.080 46.135,16.080 L46.705,14.406 C46.587,14.384 46.468,14.362 46.350,14.339 C45.986,14.295 45.646,14.251 45.312,14.184 C44.186,13.947 43.045,13.732 42.178,12.799 C42.259,12.665 42.748,11.880 42.815,11.651 C42.830,11.569 42.837,11.488 42.837,11.406 C42.837,11.162 42.785,10.903 42.711,10.628 C42.637,10.369 42.556,10.110 42.489,9.843 C42.111,8.991 41.896,8.043 41.896,7.051 C41.896,3.355 44.838,0.347 48.491,0.281 L48.498,0.281 L48.506,0.281 C52.159,0.347 55.101,3.355 55.101,7.051 C55.101,8.051 54.893,8.991 54.508,9.843 C54.426,10.110 54.345,10.369 54.271,10.628 ZM40.636,21.213 C40.933,22.095 41.577,24.073 41.859,25.154 C41.896,25.265 41.926,25.384 41.941,25.502 C41.955,25.606 41.963,25.717 42.000,25.806 C42.000,26.969 41.059,27.910 39.895,27.910 L37.887,27.910 C35.012,27.910 32.145,27.910 29.269,27.910 C29.232,27.910 29.195,27.910 29.158,27.910 C29.121,27.910 29.084,27.910 29.047,27.910 C26.172,27.910 23.304,27.910 20.429,27.910 L18.421,27.910 C17.258,27.910 16.317,26.969 16.317,25.806 C16.317,25.702 16.324,25.591 16.339,25.487 C16.354,25.369 16.383,25.250 16.421,25.139 C16.710,24.050 17.354,22.080 17.643,21.199 C17.673,21.043 17.791,20.754 17.791,20.754 C17.969,20.376 18.621,19.836 18.621,19.836 C18.644,19.821 18.799,19.747 18.821,19.732 C19.525,19.399 21.704,18.525 21.704,18.525 C22.793,18.058 23.919,17.651 25.068,17.243 C25.275,18.102 27.224,23.776 27.536,24.562 L27.780,19.288 C27.699,19.169 27.639,19.021 27.573,18.888 L26.780,17.317 C27.350,17.777 28.188,18.065 29.129,18.065 C30.092,18.065 30.952,17.762 31.522,17.288 L30.707,18.895 C30.640,19.028 30.581,19.169 30.500,19.295 L30.744,24.569 C31.055,23.776 33.004,18.102 33.212,17.251 C34.360,17.658 35.486,18.058 36.576,18.532 C36.576,18.532 38.754,19.406 39.458,19.739 C39.480,19.747 39.658,19.843 39.658,19.843 C40.014,20.058 40.488,20.769 40.488,20.769 C40.555,20.910 40.607,21.058 40.636,21.213 ZM34.353,11.169 C33.767,13.043 32.863,14.236 31.974,14.991 C30.603,16.162 29.277,16.288 29.255,16.288 C29.218,16.288 29.181,16.288 29.144,16.288 C29.106,16.288 29.069,16.288 29.032,16.288 C29.003,16.288 27.669,16.154 26.291,14.977 C25.409,14.221 24.505,13.036 23.927,11.169 C23.897,11.169 22.712,11.762 22.437,8.673 C22.304,7.214 23.519,7.510 23.653,7.503 C23.653,7.132 23.579,5.792 23.579,5.480 C23.579,2.480 26.016,0.044 29.018,0.044 L29.025,0.044 L29.032,0.044 C29.069,0.044 29.099,0.044 29.136,0.044 C29.173,0.044 29.203,0.044 29.240,0.044 L29.247,0.044 L29.255,0.044 C32.256,0.044 34.694,2.480 34.694,5.480 C34.694,5.784 34.619,7.132 34.619,7.503 C34.753,7.510 35.968,7.214 35.842,8.673 C35.568,11.769 34.390,11.169 34.353,11.169 ZM17.695,18.406 C17.680,18.406 17.673,18.413 17.665,18.421 C17.651,18.428 17.636,18.443 17.621,18.450 C17.406,18.599 17.139,18.865 17.050,18.947 C16.643,19.347 16.376,19.695 16.213,20.051 L16.191,20.095 L16.176,20.139 C16.117,20.273 16.028,20.517 15.983,20.747 C15.672,21.673 15.176,23.213 14.864,24.310 C13.671,24.310 12.478,24.310 11.285,24.310 C11.256,24.310 11.219,24.310 11.189,24.310 C11.159,24.310 11.122,24.310 11.093,24.310 C8.588,24.310 6.084,24.310 3.579,24.310 L1.830,24.310 C0.823,24.310 -0.000,23.495 -0.000,22.480 C-0.000,22.384 0.007,22.288 0.022,22.199 C0.037,22.095 0.067,21.991 0.096,21.895 C0.341,20.954 0.904,19.236 1.156,18.465 C1.178,18.332 1.223,18.199 1.282,18.080 C1.282,18.073 1.282,18.073 1.282,18.073 C1.438,17.739 1.690,17.458 2.008,17.273 C2.030,17.258 2.067,17.243 2.119,17.214 C2.141,17.206 2.164,17.191 2.186,17.184 C2.801,16.895 4.698,16.132 4.698,16.132 C5.646,15.717 6.632,15.369 7.632,15.014 C7.810,15.762 9.514,20.710 9.781,21.391 L9.996,16.791 C9.922,16.688 9.878,16.562 9.818,16.443 L9.122,15.073 C9.626,15.473 10.359,15.725 11.174,15.725 C12.012,15.725 12.760,15.458 13.256,15.043 L12.545,16.443 C12.486,16.562 12.441,16.680 12.367,16.791 L12.582,21.391 C12.849,20.702 14.553,15.762 14.731,15.014 C15.731,15.369 16.717,15.725 17.665,16.132 C17.665,16.132 19.562,16.895 20.177,17.184 C20.200,17.191 20.222,17.206 20.244,17.214 C20.274,17.228 20.296,17.243 20.318,17.251 C19.599,17.547 18.562,17.969 18.080,18.199 C18.021,18.228 17.843,18.310 17.695,18.406 ZM15.709,9.688 C15.198,11.325 14.412,12.362 13.634,13.021 C12.441,14.043 11.285,14.154 11.263,14.154 C11.234,14.154 11.197,14.154 11.167,14.154 C11.137,14.154 11.100,14.154 11.071,14.154 C11.048,14.154 9.885,14.043 8.685,13.014 C7.914,12.354 7.128,11.317 6.625,9.695 C6.595,9.695 5.565,10.221 5.335,7.517 C5.217,6.243 6.276,6.503 6.395,6.495 C6.395,6.177 6.328,4.999 6.328,4.732 C6.328,2.118 8.455,-0.008 11.071,-0.008 L11.078,-0.008 L11.085,-0.008 C11.115,-0.008 11.145,-0.008 11.174,-0.008 C11.204,-0.008 11.234,-0.008 11.263,-0.008 L11.271,-0.008 L11.278,-0.008 C13.894,-0.008 16.020,2.118 16.020,4.732 C16.020,4.999 15.954,6.169 15.954,6.495 C16.065,6.503 17.124,6.243 17.013,7.517 C16.769,10.214 15.739,9.688 15.709,9.688 Z" class="cls-1"/>
</svg>
