<svg xmlns="http://www.w3.org/2000/svg" xmlns:xlink="http://www.w3.org/1999/xlink" preserveAspectRatio="xMidYMid" width="102.375" height="36.59" viewBox="0 0 102.375 36.59">
  <defs>
    <style>
      .cls-1 {
        fill: #fff;
        fill-rule: evenodd;
      }
    </style>
  </defs>
  <path d="M101.825,30.089 C97.739,31.750 86.094,31.750 82.009,30.089 C81.680,29.954 81.418,29.482 81.475,28.215 C81.558,26.384 81.662,23.481 83.241,21.106 C83.241,21.106 83.691,20.484 84.759,20.071 C84.759,20.071 87.079,19.356 88.145,18.582 C88.145,18.582 88.641,18.946 88.634,18.920 C88.635,18.931 88.581,22.132 88.581,22.132 L91.508,30.052 C91.572,30.226 91.736,30.341 91.918,30.341 C92.101,30.341 92.264,30.226 92.328,30.052 L95.256,22.132 L95.202,18.920 L95.689,18.582 C96.758,19.356 99.077,20.071 99.077,20.071 C100.146,20.484 100.595,21.106 100.595,21.106 C102.174,23.481 102.277,26.384 102.360,28.215 C102.417,29.482 102.156,29.954 101.825,30.089 ZM91.890,20.288 L92.023,20.285 C92.439,20.268 92.833,20.194 93.207,20.083 L92.063,21.855 L93.106,22.874 L92.033,29.469 C92.024,29.526 91.975,29.567 91.919,29.567 C91.862,29.567 91.814,29.526 91.805,29.469 L90.733,22.874 L91.774,21.855 L90.614,20.056 C91.035,20.204 91.465,20.288 91.890,20.288 ZM96.815,11.910 C97.099,12.291 96.988,13.012 96.886,13.490 C96.794,13.906 96.642,14.261 96.483,14.427 C96.099,16.511 94.392,19.141 91.983,19.261 C90.090,19.356 87.732,17.088 87.354,14.427 C87.196,14.260 87.060,13.992 86.971,13.579 C86.868,13.101 86.682,12.290 86.967,11.910 C87.007,11.854 87.056,11.808 87.109,11.772 C86.561,9.769 87.013,8.713 87.083,8.546 C88.053,6.198 90.154,4.785 93.130,5.792 C94.137,6.134 95.252,6.566 96.055,7.427 C97.537,9.015 96.942,10.782 96.671,11.772 C96.690,11.789 96.798,11.890 96.815,11.910 ZM68.699,21.189 L55.871,21.189 C55.371,21.189 54.949,20.971 54.715,20.591 C54.480,20.212 54.474,19.737 54.697,19.290 L61.198,6.287 C61.436,5.812 61.832,5.540 62.285,5.540 C62.738,5.540 63.134,5.812 63.372,6.287 L69.872,19.290 C70.096,19.737 70.090,20.212 69.855,20.591 C69.621,20.971 69.199,21.189 68.699,21.189 ZM67.042,17.231 L62.596,8.339 C62.596,8.339 62.459,8.061 62.285,8.061 C62.105,8.061 61.962,8.362 61.963,8.362 L57.592,17.105 C57.145,17.844 57.603,17.783 57.820,17.733 C59.065,17.445 60.610,17.274 62.285,17.274 C63.916,17.274 65.425,17.436 66.652,17.711 C66.905,17.767 67.419,17.899 67.042,17.231 ZM68.590,2.299 L34.326,7.892 C34.263,7.903 34.200,7.907 34.138,7.907 C33.579,7.907 33.087,7.503 32.994,6.934 C32.891,6.302 33.320,5.706 33.952,5.602 L48.328,3.256 C48.635,3.200 48.565,2.907 48.565,2.717 C48.565,1.222 49.776,0.011 51.271,0.011 C52.466,0.011 53.480,0.785 53.839,1.860 C53.890,2.014 53.947,2.370 54.304,2.280 L68.216,0.009 C68.849,-0.094 69.445,0.335 69.548,0.967 C69.651,1.600 69.222,2.196 68.590,2.299 ZM40.257,9.866 C40.711,9.866 41.107,10.139 41.344,10.614 L47.845,23.617 C48.069,24.064 48.062,24.538 47.828,24.918 C47.593,25.298 47.172,25.515 46.672,25.515 L33.843,25.515 C33.343,25.515 32.922,25.297 32.687,24.918 C32.452,24.538 32.446,24.064 32.670,23.617 L39.171,10.614 C39.408,10.139 39.804,9.866 40.257,9.866 ZM35.760,22.068 C37.011,21.775 38.568,21.601 40.257,21.601 C41.968,21.601 43.543,21.779 44.802,22.079 C44.990,22.123 45.401,22.298 45.073,21.676 L40.466,12.462 C40.466,12.462 40.386,12.275 40.257,12.275 C40.138,12.275 40.043,12.471 40.043,12.471 L35.443,21.673 C35.076,22.298 35.555,22.116 35.760,22.068 ZM0.539,30.089 C0.210,29.954 -0.052,29.482 0.005,28.215 C0.088,26.384 0.192,23.481 1.771,21.106 C1.771,21.106 2.221,20.484 3.289,20.071 C3.289,20.071 5.609,19.356 6.675,18.582 C6.675,18.582 7.171,18.946 7.164,18.920 C7.165,18.931 7.111,22.132 7.111,22.132 L10.038,30.052 C10.102,30.226 10.266,30.341 10.448,30.341 C10.631,30.341 10.794,30.226 10.858,30.052 L13.786,22.132 L13.732,18.920 L14.219,18.582 C15.288,19.356 17.607,20.071 17.607,20.071 C18.676,20.484 19.125,21.106 19.125,21.106 C20.704,23.481 20.807,26.384 20.890,28.215 C20.947,29.482 20.686,29.954 20.355,30.089 C16.269,31.750 4.624,31.750 0.539,30.089 ZM10.420,20.288 L10.553,20.285 C10.969,20.268 11.363,20.194 11.737,20.083 L10.593,21.855 L11.636,22.874 L10.563,29.469 C10.554,29.526 10.505,29.567 10.449,29.567 C10.392,29.567 10.344,29.526 10.335,29.469 L9.263,22.874 L10.304,21.855 L9.143,20.056 C9.565,20.204 9.995,20.288 10.420,20.288 ZM15.345,11.910 C15.629,12.291 15.518,13.012 15.416,13.490 C15.324,13.906 15.172,14.261 15.013,14.427 C14.629,16.511 12.922,19.141 10.513,19.261 C8.620,19.356 6.262,17.088 5.884,14.427 C5.726,14.260 5.590,13.992 5.501,13.579 C5.398,13.101 5.213,12.290 5.497,11.910 C5.537,11.854 5.586,11.808 5.639,11.772 C5.091,9.769 5.543,8.713 5.613,8.546 C6.583,6.198 8.684,4.785 11.660,5.792 C12.667,6.134 13.782,6.566 14.585,7.427 C16.067,9.015 15.472,10.782 15.201,11.772 C15.220,11.789 15.328,11.890 15.345,11.910 ZM49.529,29.866 C49.722,29.853 50.111,29.812 50.111,29.373 L50.111,8.115 C50.111,7.475 50.631,6.955 51.271,6.955 C51.912,6.955 52.431,7.475 52.431,8.115 L52.431,29.373 C52.431,29.865 52.845,29.854 53.050,29.868 C59.677,30.321 65.074,33.214 66.681,35.542 C66.931,35.904 67.300,36.575 65.719,36.575 L36.825,36.575 C35.243,36.575 35.646,35.829 35.944,35.426 C37.651,33.114 42.995,30.303 49.529,29.866 Z" class="cls-1"/>
</svg>
