<svg xmlns="http://www.w3.org/2000/svg" xmlns:xlink="http://www.w3.org/1999/xlink" preserveAspectRatio="xMidYMid" width="64" height="63" viewBox="0 0 64 63">
  <defs>
    <style>

      .cls-2 {
        fill: #ea4241;
      }
    </style>
  </defs>
  <path d="M61.558,40.553 C61.558,40.553 49.345,40.553 49.345,40.553 C48.344,40.553 47.530,39.739 47.530,38.738 C47.530,38.738 47.530,36.596 47.530,36.596 C47.530,34.781 49.256,32.671 51.481,32.671 C51.481,32.671 52.321,32.671 52.321,32.671 C52.665,32.671 52.984,32.849 53.164,33.142 C53.741,34.079 54.574,34.617 55.449,34.617 C56.325,34.617 57.158,34.079 57.735,33.142 C57.915,32.849 58.234,32.671 58.578,32.671 C58.578,32.671 59.418,32.671 59.418,32.671 C60.498,32.671 61.520,33.149 62.295,34.018 C62.968,34.771 63.369,35.735 63.369,36.596 C63.369,36.596 63.369,38.743 63.369,38.743 C63.369,39.741 62.556,40.553 61.558,40.553 ZM61.389,36.596 C61.389,35.927 60.622,34.650 59.418,34.650 C59.418,34.650 59.100,34.650 59.100,34.650 C58.164,35.894 56.859,36.596 55.449,36.596 C54.040,36.596 52.735,35.894 51.798,34.650 C51.798,34.650 51.481,34.650 51.481,34.650 C50.277,34.650 49.510,35.927 49.510,36.596 C49.510,36.596 49.510,38.574 49.510,38.574 C49.510,38.574 61.389,38.574 61.389,38.574 C61.389,38.574 61.389,36.596 61.389,36.596 ZM55.449,32.639 C52.720,32.639 50.500,30.420 50.500,27.692 C50.500,27.692 50.500,26.703 50.500,26.703 C50.500,23.976 52.720,21.757 55.449,21.757 C58.179,21.757 60.399,23.976 60.399,26.703 C60.399,26.703 60.399,27.692 60.399,27.692 C60.399,30.420 58.179,32.639 55.449,32.639 ZM58.419,26.703 C58.419,25.067 57.087,23.735 55.449,23.735 C53.812,23.735 52.480,25.067 52.480,26.703 C52.480,26.703 52.480,27.692 52.480,27.692 C52.480,29.329 53.812,30.660 55.449,30.660 C57.087,30.660 58.419,29.329 58.419,27.692 C58.419,27.692 58.419,26.703 58.419,26.703 ZM53.350,19.634 C53.189,19.732 53.011,19.779 52.835,19.779 C52.502,19.779 52.176,19.610 51.989,19.305 C49.078,14.536 44.571,10.929 39.296,9.150 C38.778,8.975 38.500,8.414 38.674,7.896 C38.849,7.378 39.411,7.100 39.929,7.275 C45.644,9.203 50.527,13.109 53.679,18.274 C53.964,18.741 53.817,19.349 53.350,19.634 ZM39.610,16.979 C39.610,17.977 38.797,18.789 37.798,18.789 C37.798,18.789 25.586,18.789 25.586,18.789 C24.585,18.789 23.770,17.975 23.770,16.975 C23.770,16.975 23.770,14.832 23.770,14.832 C23.770,13.017 25.496,10.908 27.721,10.908 C27.721,10.908 28.562,10.908 28.562,10.908 C28.905,10.908 29.225,11.086 29.405,11.378 C29.982,12.316 30.815,12.854 31.690,12.854 C32.565,12.854 33.398,12.316 33.976,11.378 C34.156,11.086 34.475,10.908 34.819,10.908 C34.819,10.908 35.659,10.908 35.659,10.908 C36.739,10.908 37.760,11.386 38.536,12.254 C39.208,13.007 39.610,13.971 39.610,14.832 C39.610,14.832 39.610,16.979 39.610,16.979 ZM37.630,14.832 C37.630,14.164 36.862,12.886 35.659,12.886 C35.659,12.886 35.341,12.886 35.341,12.886 C34.404,14.130 33.099,14.832 31.690,14.832 C30.281,14.832 28.976,14.130 28.039,12.886 C28.039,12.886 27.721,12.886 27.721,12.886 C26.518,12.886 25.750,14.164 25.750,14.832 C25.750,14.832 25.750,16.811 25.750,16.811 C25.750,16.811 37.630,16.811 37.630,16.811 C37.630,16.811 37.630,14.832 37.630,14.832 ZM31.690,10.875 C28.961,10.875 26.740,8.656 26.740,5.929 C26.740,5.929 26.740,4.940 26.740,4.940 C26.740,2.212 28.961,-0.007 31.690,-0.007 C34.419,-0.007 36.640,2.212 36.640,4.940 C36.640,4.940 36.640,5.929 36.640,5.929 C36.640,8.656 34.419,10.875 31.690,10.875 ZM34.660,4.940 C34.660,3.303 33.328,1.972 31.690,1.972 C30.052,1.972 28.720,3.303 28.720,4.940 C28.720,4.940 28.720,5.929 28.720,5.929 C28.720,7.565 30.052,8.897 31.690,8.897 C33.328,8.897 34.660,7.565 34.660,5.929 C34.660,5.929 34.660,4.940 34.660,4.940 ZM24.087,9.149 C18.811,10.928 14.302,14.535 11.391,19.304 C11.205,19.610 10.879,19.779 10.545,19.779 C10.369,19.779 10.191,19.732 10.030,19.634 C9.564,19.349 9.416,18.740 9.701,18.274 C12.854,13.108 17.738,9.202 23.454,7.274 C23.972,7.099 24.534,7.377 24.709,7.895 C24.884,8.413 24.606,8.974 24.087,9.149 ZM12.881,26.703 C12.881,26.703 12.881,27.692 12.881,27.692 C12.881,30.420 10.660,32.639 7.931,32.639 C5.202,32.639 2.981,30.420 2.981,27.692 C2.981,27.692 2.981,26.703 2.981,26.703 C2.981,23.976 5.202,21.757 7.931,21.757 C10.660,21.757 12.881,23.976 12.881,26.703 ZM10.901,26.703 C10.901,25.067 9.569,23.735 7.931,23.735 C6.293,23.735 4.961,25.067 4.961,26.703 C4.961,26.703 4.961,27.692 4.961,27.692 C4.961,29.329 6.293,30.660 7.931,30.660 C9.569,30.660 10.901,29.329 10.901,27.692 C10.901,27.692 10.901,26.703 10.901,26.703 ZM4.802,32.671 C5.146,32.671 5.465,32.849 5.645,33.142 C6.223,34.079 7.056,34.617 7.931,34.617 C8.806,34.617 9.639,34.079 10.216,33.142 C10.397,32.849 10.716,32.671 11.059,32.671 C11.059,32.671 11.900,32.671 11.900,32.671 C12.979,32.671 14.001,33.149 14.777,34.018 C15.449,34.771 15.851,35.735 15.851,36.596 C15.851,36.596 15.851,38.743 15.851,38.743 C15.851,39.741 15.038,40.553 14.039,40.553 C14.039,40.553 1.827,40.553 1.827,40.553 C0.826,40.553 0.011,39.739 0.011,38.738 C0.011,38.738 0.011,36.596 0.011,36.596 C0.011,34.781 1.737,32.671 3.962,32.671 C3.962,32.671 4.802,32.671 4.802,32.671 ZM1.991,36.596 C1.991,36.596 1.991,38.574 1.991,38.574 C1.991,38.574 13.871,38.574 13.871,38.574 C13.871,38.574 13.871,36.596 13.871,36.596 C13.871,35.927 13.103,34.650 11.900,34.650 C11.900,34.650 11.582,34.650 11.582,34.650 C10.645,35.894 9.340,36.596 7.931,36.596 C6.522,36.596 5.217,35.894 4.280,34.650 C4.280,34.650 3.962,34.650 3.962,34.650 C2.759,34.650 1.991,35.927 1.991,36.596 ZM9.497,42.653 C9.977,42.390 10.578,42.565 10.841,43.044 C13.395,47.701 17.488,51.412 22.365,53.494 C22.868,53.708 23.102,54.289 22.887,54.792 C22.726,55.168 22.361,55.393 21.976,55.393 C21.846,55.393 21.715,55.367 21.588,55.313 C16.304,53.058 11.871,49.039 9.105,43.995 C8.842,43.516 9.018,42.915 9.497,42.653 ZM31.690,54.402 C28.961,54.402 26.740,52.183 26.740,49.456 C26.740,49.456 26.740,48.467 26.740,48.467 C26.740,45.739 28.961,43.521 31.690,43.521 C34.419,43.521 36.640,45.739 36.640,48.467 C36.640,48.467 36.640,49.456 36.640,49.456 C36.640,52.183 34.419,54.402 31.690,54.402 ZM34.660,48.467 C34.660,46.830 33.328,45.499 31.690,45.499 C30.052,45.499 28.720,46.830 28.720,48.467 C28.720,48.467 28.720,49.456 28.720,49.456 C28.720,51.092 30.052,52.424 31.690,52.424 C33.328,52.424 34.660,51.092 34.660,49.456 C34.660,49.456 34.660,48.467 34.660,48.467 ZM27.721,54.435 C27.721,54.435 28.562,54.435 28.562,54.435 C28.905,54.435 29.225,54.613 29.405,54.905 C29.982,55.843 30.815,56.381 31.690,56.381 C32.565,56.381 33.398,55.843 33.976,54.905 C34.156,54.613 34.475,54.435 34.819,54.435 C34.819,54.435 35.659,54.435 35.659,54.435 C36.739,54.435 37.760,54.913 38.536,55.781 C39.208,56.534 39.610,57.498 39.610,58.359 C39.610,58.359 39.610,60.506 39.610,60.506 C39.610,61.504 38.797,62.316 37.798,62.316 C37.798,62.316 25.586,62.316 25.586,62.316 C24.585,62.316 23.770,61.502 23.770,60.502 C23.770,60.502 23.770,58.359 23.770,58.359 C23.770,56.544 25.496,54.435 27.721,54.435 ZM25.750,60.338 C25.750,60.338 37.630,60.338 37.630,60.338 C37.630,60.338 37.630,58.359 37.630,58.359 C37.630,57.691 36.862,56.413 35.659,56.413 C35.659,56.413 35.341,56.413 35.341,56.413 C34.404,57.657 33.099,58.359 31.690,58.359 C30.281,58.359 28.976,57.657 28.039,56.413 C28.039,56.413 27.721,56.413 27.721,56.413 C26.518,56.413 25.750,57.691 25.750,58.359 C25.750,58.359 25.750,60.338 25.750,60.338 ZM41.017,53.493 C45.893,51.411 49.985,47.701 52.539,43.045 C52.802,42.566 53.403,42.391 53.883,42.654 C54.362,42.916 54.538,43.517 54.275,43.996 C51.509,49.038 47.077,53.057 41.795,55.312 C41.668,55.366 41.536,55.392 41.406,55.392 C41.022,55.392 40.656,55.167 40.495,54.791 C40.280,54.289 40.514,53.707 41.017,53.493 Z" id="path-1" class="cls-2" fill-rule="evenodd"/>
</svg>
