<svg xmlns="http://www.w3.org/2000/svg" xmlns:xlink="http://www.w3.org/1999/xlink" preserveAspectRatio="xMidYMid" width="42" height="54" viewBox="0 0 42 54">
  <defs>
    <style>

      .cls-2 {
        fill: #ea4241;
      }
    </style>
  </defs>
  <path d="M39.312,53.552 C39.312,53.552 2.500,53.552 2.500,53.552 C1.116,53.552 -0.010,52.425 -0.010,51.041 C-0.010,51.041 -0.010,2.504 -0.010,2.504 C-0.010,1.119 1.116,-0.007 2.500,-0.007 C2.500,-0.007 39.312,-0.007 39.312,-0.007 C40.696,-0.007 41.822,1.119 41.822,2.504 C41.822,2.504 41.822,51.041 41.822,51.041 C41.822,52.425 40.696,53.552 39.312,53.552 ZM40.149,2.504 C40.149,2.042 39.773,1.667 39.312,1.667 C39.312,1.667 2.500,1.667 2.500,1.667 C2.039,1.667 1.663,2.042 1.663,2.504 C1.663,2.504 1.663,23.425 1.663,23.425 C1.663,23.425 40.149,23.425 40.149,23.425 C40.149,23.425 40.149,2.504 40.149,2.504 ZM40.149,25.099 C40.149,25.099 1.663,25.099 1.663,25.099 C1.663,25.099 1.663,51.041 1.663,51.041 C1.663,51.503 2.039,51.878 2.500,51.878 C2.500,51.878 39.312,51.878 39.312,51.878 C39.773,51.878 40.149,51.503 40.149,51.041 C40.149,51.041 40.149,25.099 40.149,25.099 ZM34.885,37.652 C34.885,37.652 5.846,37.652 5.846,37.652 C5.384,37.652 5.010,37.277 5.010,36.815 C5.010,36.353 5.384,35.978 5.846,35.978 C5.846,35.978 34.885,35.978 34.885,35.978 C35.347,35.978 35.721,36.353 35.721,36.815 C35.721,37.277 35.347,37.652 34.885,37.652 ZM11.703,30.957 C11.703,30.957 29.721,30.957 29.721,30.957 C30.183,30.957 30.558,31.331 30.558,31.794 C30.558,32.256 30.183,32.630 29.721,32.630 C29.721,32.630 11.703,32.630 11.703,32.630 C11.241,32.630 10.866,32.256 10.866,31.794 C10.866,31.331 11.241,30.957 11.703,30.957 ZM31.350,29.283 C31.350,29.283 11.703,29.283 11.703,29.283 C11.241,29.283 10.866,28.908 10.866,28.446 C10.866,27.984 11.241,27.609 11.703,27.609 C11.703,27.609 31.350,27.609 31.350,27.609 C31.812,27.609 32.187,27.984 32.187,28.446 C32.187,28.908 31.812,29.283 31.350,29.283 ZM7.520,32.630 C7.520,32.630 5.846,32.630 5.846,32.630 C5.384,32.630 5.010,32.256 5.010,31.794 C5.010,31.331 5.384,30.957 5.846,30.957 C5.846,30.957 7.520,30.957 7.520,30.957 C7.982,30.957 8.356,31.331 8.356,31.794 C8.356,32.256 7.982,32.630 7.520,32.630 ZM7.520,29.283 C7.520,29.283 5.846,29.283 5.846,29.283 C5.384,29.283 5.010,28.908 5.010,28.446 C5.010,27.984 5.384,27.609 5.846,27.609 C5.846,27.609 7.520,27.609 7.520,27.609 C7.982,27.609 8.356,27.984 8.356,28.446 C8.356,28.908 7.982,29.283 7.520,29.283 ZM5.846,39.325 C5.846,39.325 27.106,39.325 27.106,39.325 C27.568,39.325 27.942,39.700 27.942,40.162 C27.942,40.624 27.568,40.999 27.106,40.999 C27.106,40.999 5.846,40.999 5.846,40.999 C5.384,40.999 5.010,40.624 5.010,40.162 C5.010,39.700 5.384,39.325 5.846,39.325 ZM5.846,42.673 C5.846,42.673 32.081,42.673 32.081,42.673 C32.543,42.673 32.918,43.047 32.918,43.510 C32.918,43.972 32.543,44.346 32.081,44.346 C32.081,44.346 5.846,44.346 5.846,44.346 C5.384,44.346 5.010,43.972 5.010,43.510 C5.010,43.047 5.384,42.673 5.846,42.673 ZM5.846,46.020 C5.846,46.020 28.352,46.020 28.352,46.020 C28.814,46.020 29.189,46.395 29.189,46.857 C29.189,47.319 28.814,47.694 28.352,47.694 C28.352,47.694 5.846,47.694 5.846,47.694 C5.384,47.694 5.010,47.319 5.010,46.857 C5.010,46.395 5.384,46.020 5.846,46.020 ZM8.349,14.247 C8.349,14.247 9.059,14.247 9.059,14.247 C9.349,14.247 9.619,14.398 9.771,14.645 C10.259,15.438 10.963,15.893 11.703,15.893 C12.442,15.893 13.146,15.438 13.634,14.645 C13.786,14.398 14.056,14.247 14.347,14.247 C14.347,14.247 15.057,14.247 15.057,14.247 C15.969,14.247 16.833,14.652 17.488,15.386 C18.057,16.023 18.396,16.839 18.396,17.567 C18.396,17.567 18.396,19.383 18.396,19.383 C18.396,20.228 17.709,20.914 16.865,20.914 C16.865,20.914 6.544,20.914 6.544,20.914 C5.698,20.914 5.010,20.226 5.010,19.380 C5.010,19.380 5.010,17.567 5.010,17.567 C5.010,16.032 6.468,14.247 8.349,14.247 ZM6.683,19.241 C6.683,19.241 16.723,19.241 16.723,19.241 C16.723,19.241 16.723,17.567 16.723,17.567 C16.723,17.002 16.074,15.921 15.057,15.921 C15.057,15.921 14.788,15.921 14.788,15.921 C13.997,16.973 12.894,17.567 11.703,17.567 C10.512,17.567 9.409,16.973 8.617,15.921 C8.617,15.921 8.349,15.921 8.349,15.921 C7.332,15.921 6.683,17.002 6.683,17.567 C6.683,17.567 6.683,17.567 6.683,17.567 C6.683,17.567 6.683,19.241 6.683,19.241 ZM20.906,5.851 C20.906,5.851 30.109,5.851 30.109,5.851 C30.571,5.851 30.945,6.226 30.945,6.688 C30.945,7.150 30.571,7.525 30.109,7.525 C30.109,7.525 20.906,7.525 20.906,7.525 C20.444,7.525 20.069,7.150 20.069,6.688 C20.069,6.226 20.444,5.851 20.906,5.851 ZM20.906,9.198 C20.906,9.198 35.129,9.198 35.129,9.198 C35.591,9.198 35.965,9.573 35.965,10.035 C35.965,10.497 35.591,10.872 35.129,10.872 C35.129,10.872 20.906,10.872 20.906,10.872 C20.444,10.872 20.069,10.497 20.069,10.035 C20.069,9.573 20.444,9.198 20.906,9.198 ZM20.906,12.546 C20.906,12.546 23.416,12.546 23.416,12.546 C23.878,12.546 24.252,12.921 24.252,13.383 C24.252,13.845 23.878,14.220 23.416,14.220 C23.416,14.220 20.906,14.220 20.906,14.220 C20.444,14.220 20.069,13.845 20.069,13.383 C20.069,12.921 20.444,12.546 20.906,12.546 ZM26.762,12.546 C26.762,12.546 29.272,12.546 29.272,12.546 C29.734,12.546 30.109,12.921 30.109,13.383 C30.109,13.845 29.734,14.220 29.272,14.220 C29.272,14.220 26.762,14.220 26.762,14.220 C26.300,14.220 25.926,13.845 25.926,13.383 C25.926,12.921 26.300,12.546 26.762,12.546 ZM32.619,12.546 C32.619,12.546 35.129,12.546 35.129,12.546 C35.591,12.546 35.965,12.921 35.965,13.383 C35.965,13.845 35.591,14.220 35.129,14.220 C35.129,14.220 32.619,14.220 32.619,14.220 C32.157,14.220 31.782,13.845 31.782,13.383 C31.782,12.921 32.157,12.546 32.619,12.546 ZM11.703,14.220 C9.396,14.220 7.520,12.342 7.520,10.035 C7.520,10.035 7.520,9.198 7.520,9.198 C7.520,6.891 9.396,5.014 11.703,5.014 C14.009,5.014 15.886,6.891 15.886,9.198 C15.886,9.198 15.886,10.035 15.886,10.035 C15.886,12.342 14.009,14.220 11.703,14.220 ZM14.213,9.198 C14.213,7.814 13.087,6.688 11.703,6.688 C10.319,6.688 9.193,7.814 9.193,9.198 C9.193,9.198 9.193,10.035 9.193,10.035 C9.193,11.420 10.319,12.546 11.703,12.546 C13.087,12.546 14.213,11.420 14.213,10.035 C14.213,10.035 14.213,9.198 14.213,9.198 Z" id="path-1" class="cls-2" fill-rule="evenodd"/>
</svg>
